<svg width="37" height="44" viewBox="0 0 37 44" fill="none" xmlns="http://www.w3.org/2000/svg">
<path fill-rule="evenodd" clip-rule="evenodd" d="M29.2071 32.2873C33.789 29.0776 36.7773 23.8095 36.7773 17.8548C36.7773 8.07613 28.7185 0.148926 18.7773 0.148926C8.83622 0.148926 0.777344 8.07613 0.777344 17.8548C0.777344 23.8125 3.76862 29.0828 8.35441 32.292L18.7785 43.1489L29.2071 32.2873Z" fill="#F53B49"/>
<path d="M6.11328 13.2644H11.6011L18.2664 23.9534H12.7713L6.11328 13.2644Z" fill="white"/>
<path d="M12.5664 13.2644H18.0615L24.7268 23.9534H19.2317L12.5664 13.2644Z" fill="white"/>
<path d="M19.0039 13.2644H31.266L29.1509 16.5247H21.0318L19.0039 13.2644Z" fill="#B44843"/>
<path d="M26.4281 20.7289H23.6079L21.5 17.3398H28.6232L26.4281 20.7289Z" fill="#B44843"/>
</svg>
