<svg width="21" height="21" viewBox="0 0 21 21" fill="none" xmlns="http://www.w3.org/2000/svg">
<g clip-path="url(#clip0)">
<path d="M8.1875 14.8047V18.6697C8.1875 18.9397 8.36151 19.1788 8.61919 19.2638C8.68361 19.2847 8.7497 19.2947 8.81496 19.2947C9.01072 19.2947 9.1998 19.203 9.32027 19.0397L11.59 15.963L8.1875 14.8047Z" fill="white"/>
<path d="M20.6824 0.243837C20.49 0.108004 20.2373 0.0896702 20.0282 0.198837L1.20438 9.9905C0.981841 10.1063 0.850492 10.343 0.868898 10.5922C0.88814 10.8422 1.05463 11.0555 1.29139 11.1363L6.52441 12.918L17.6689 3.42634L9.04513 13.7755L17.8153 16.7613C17.8806 16.783 17.9492 16.7947 18.0178 16.7947C18.1316 16.7947 18.2445 16.7638 18.3441 16.7038C18.503 16.6072 18.611 16.4447 18.6386 16.2622L20.9393 0.845504C20.9736 0.61217 20.8748 0.380504 20.6824 0.243837Z" fill="white"/>
</g>
<defs>
<clipPath id="clip0">
<rect width="20.0787" height="20" fill="white" transform="translate(0.867188 0.12793)"/>
</clipPath>
</defs>
</svg>
