<svg width="17" height="16" viewBox="0 0 17 16" fill="none" xmlns="http://www.w3.org/2000/svg">
<path d="M12.6671 7.99976C12.2984 7.99976 12.0004 8.29843 12.0004 8.66645V13.9999C12.0004 14.3673 11.7017 14.6666 11.3337 14.6666H2.00006C1.63205 14.6666 1.33337 14.3673 1.33337 13.9999V4.66632C1.33337 4.29898 1.63205 3.99963 2.00006 3.99963H7.33356C7.70224 3.99963 8.00025 3.70096 8.00025 3.33295C8.00025 2.96494 7.70224 2.66626 7.33356 2.66626H2.00006C0.897361 2.66626 0 3.56362 0 4.66632V13.9999C0 15.1026 0.897361 16 2.00006 16H11.3337C12.4364 16 13.3337 15.1026 13.3337 13.9999V8.66645C13.3337 8.29777 13.0357 7.99976 12.6671 7.99976Z" fill="white"/>
<path d="M6.25278 7.39251C6.20611 7.43917 6.17478 7.49851 6.16144 7.56251L5.6901 9.91992C5.66809 10.0293 5.70276 10.1419 5.78143 10.2213C5.84477 10.2846 5.9301 10.3186 6.01744 10.3186C6.03877 10.3186 6.06077 10.3166 6.08277 10.3119L8.43951 9.84058C8.50485 9.82725 8.56419 9.79591 8.61019 9.74925L13.885 4.47442L11.5283 2.11768L6.25278 7.39251Z" fill="white"/>
<path d="M15.5138 0.487515C14.8638 -0.162505 13.8064 -0.162505 13.1571 0.487515L12.2344 1.41021L14.5911 3.76695L15.5138 2.84425C15.8285 2.53025 16.0018 2.11157 16.0018 1.66622C16.0018 1.22087 15.8285 0.802192 15.5138 0.487515Z" fill="white"/>
</svg>
