<svg width="16" height="15" viewBox="0 0 16 15" fill="none" xmlns="http://www.w3.org/2000/svg"><path d="M15.4592 2.92849L10.6113 7.31146L15.4592 11.6942C16.1803 12.3464 16.1803 13.4027 15.4592 14.0548C15.0989 14.3806 14.6265 14.5435 14.1544 14.5435C13.6814 14.5435 13.209 14.3808 12.849 14.0548L8.00004 9.67158L3.15143 14.0548C2.79118 14.3805 2.31876 14.5435 1.8462 14.5435C1.37378 14.5435 0.901677 14.3808 0.541103 14.0548C-0.18 13.403 -0.18 12.3466 0.541103 11.6942L5.38888 7.31142L0.540827 2.92849C-0.180276 2.27661 -0.180276 1.22 0.540827 0.568125C1.26179 -0.0832551 2.42992 -0.0832551 3.15116 0.568125L7.99999 4.9511L12.8485 0.568125C13.5698 -0.0832551 14.7381 -0.0832551 15.4589 0.568125C16.1803 1.22 16.1803 2.27661 15.4592 2.92849Z" fill="#ff9e11"/></svg>
