<svg width="59" height="59" viewBox="0 0 59 59" fill="none" xmlns="http://www.w3.org/2000/svg">
<path d="M54.9406 14.5569C54.7044 14.1555 54.1877 14.0217 53.7862 14.2579C53.385 14.4942 53.2511 15.011 53.4873 15.4123C55.9907 19.6651 57.3138 24.5365 57.3138 29.5C57.3138 44.8365 44.8365 57.3137 29.5001 57.3137C14.1637 57.3137 1.68634 44.8365 1.68634 29.5C1.68634 14.1635 14.1635 1.68634 29.5 1.68634C38.1327 1.68634 46.1321 5.59578 51.4472 12.4121C51.7334 12.7794 52.2633 12.8447 52.6305 12.5586C52.9977 12.2722 53.0634 11.7425 52.7769 11.3752C50.0767 7.91234 46.579 5.04807 42.662 3.09208C38.5533 1.04034 34.1249 0 29.5 0C21.6203 0 14.2122 3.06858 8.64039 8.64039C3.06846 14.2122 0 21.6203 0 29.5C0 37.3797 3.06846 44.7878 8.64039 50.3596C14.2122 55.9314 21.6203 59 29.5 59C37.3797 59 44.7878 55.9314 50.3596 50.3596C55.9315 44.7878 59 37.3797 59 29.5C59 24.2359 57.5963 19.0686 54.9406 14.5569Z" fill="#F53B49"/>
<path d="M36.9319 49.7764C33.7421 49.3034 30.7548 47.8831 28.2476 45.8737C23.0477 41.9927 18.373 37.4423 14.3536 32.3491C14.065 31.9834 13.5348 31.9212 13.1694 32.2095C12.8039 32.4981 12.7414 33.0282 13.0298 33.3937C17.1405 38.6025 21.9211 43.256 27.2389 47.225C30.3753 49.704 34.249 51.4498 38.2838 51.5664C41.0806 51.5664 43.8088 50.4576 45.8115 48.4549L49.1063 45.1603C50.1585 44.1081 50.1585 42.3961 49.1063 41.3439L45.8748 38.1125C45.5455 37.7833 45.0117 37.7833 44.6824 38.1125C44.3532 38.4418 44.3532 38.9756 44.6824 39.3049L47.9138 42.5363C48.3065 42.9131 48.3065 43.5911 47.9138 43.9678L46.8849 44.9967L38.8034 36.9154L39.6743 35.8629C40.0336 35.4071 40.7692 35.3724 41.1701 35.7925L41.9739 36.5963C42.303 36.9255 42.8369 36.9255 43.1663 36.5963C43.4955 36.2669 43.4955 35.7332 43.1662 35.4039L42.3624 34.6002C41.8263 34.064 41.0856 33.7772 40.3272 33.8128C39.57 33.8484 38.8586 34.2039 38.3752 34.7879L34.4153 39.5734C34.3862 39.6085 34.3351 39.6142 34.299 39.5868L32.1729 37.9756C27.9674 34.7886 24.2192 31.0403 21.0324 26.835L19.4212 24.7092C19.3936 24.6729 19.3995 24.6217 19.4346 24.5928L24.22 20.6327C24.804 20.1495 25.1594 19.4379 25.1951 18.6807C25.2308 17.9234 24.9438 17.1816 24.4078 16.6455L17.664 9.90166C17.1543 9.39198 16.4765 9.11127 15.7558 9.11127C15.035 9.11127 14.3572 9.39198 13.8475 9.90166L10.553 13.1963C8.16671 15.5825 7.04962 18.9981 7.56484 22.3333C8.00169 25.1613 9.0827 27.9074 10.6911 30.2743C10.9528 30.6595 11.4772 30.7594 11.8624 30.4977C12.2475 30.236 12.3475 29.7116 12.0858 29.3265C10.6173 27.1653 9.63018 24.6581 9.23136 22.0758C8.79796 19.27 9.7377 16.3962 11.7453 14.3887L12.8186 13.3154L20.7875 21.2843L18.3594 23.2936C17.6266 23.9001 17.5025 24.9691 18.0771 25.7276C22.2526 31.5979 27.4098 36.7558 33.2805 40.9307C34.0328 41.5027 35.1047 41.3851 35.7144 40.6485L37.7236 38.2205L45.6925 46.1894L44.6191 47.2628C42.6114 49.2701 39.7376 50.2099 36.9319 49.7764ZM14.0107 12.1228L15.0396 11.0939C15.4342 10.6992 16.0765 10.6992 16.4711 11.0939L23.2149 17.8377C23.635 18.2381 23.6003 18.9744 23.1445 19.3334L22.0921 20.2043L14.0107 12.1228Z" fill="#F53B49"/>
<path d="M45.3866 29.8337C45.8328 29.9227 46.2877 29.6244 46.3734 29.1642C47.2817 24.422 45.7884 19.5553 42.379 16.1457C38.9693 12.7362 34.1027 11.243 29.3605 12.1514C28.9031 12.2391 28.6034 12.6808 28.691 13.1381C28.7787 13.5956 29.2214 13.895 29.6777 13.8076C33.8707 13.0042 38.1727 14.3243 41.1865 17.3382C44.2005 20.352 45.5203 24.6544 44.7172 28.847C44.6295 29.3043 44.9292 29.746 45.3866 29.8337Z" fill="#F53B49"/>
<path d="M40.6389 29.254C41.0817 29.3563 41.5459 29.0723 41.6454 28.6146C42.3823 25.3104 41.395 21.9107 39.0045 19.52C36.6138 17.1295 33.2139 16.1424 29.9098 16.8791C29.4553 16.9805 29.1691 17.4311 29.2704 17.8856C29.3717 18.3401 29.8223 18.6262 30.2768 18.525C33.0142 17.9144 35.8315 18.7321 37.8118 20.7124C39.7922 22.6927 40.61 25.5097 39.9994 28.2475C39.8982 28.7019 40.1845 29.1526 40.6389 29.254Z" fill="#F53B49"/>
<path d="M35.6489 28.6305C36.0763 28.7847 36.5702 28.5592 36.7245 28.1158C37.3548 26.3285 36.8968 24.3083 35.5575 22.9689C34.2182 21.6296 32.1982 21.1716 30.4106 21.8019C29.9714 21.9568 29.741 22.4384 29.8959 22.8775C30.0508 23.3167 30.5326 23.5473 30.9717 23.3922C32.1504 22.9765 33.4824 23.2784 34.3651 24.1613C35.248 25.0442 35.5499 26.3762 35.1343 27.5548C34.9792 27.994 35.2097 28.4755 35.6489 28.6305Z" fill="#F53B49"/>
</svg>
