<svg width="60" height="60" viewBox="0 0 60 60" fill="none" xmlns="http://www.w3.org/2000/svg">
<path d="M58.575 36.5565C57.7403 35.7768 56.6515 35.3473 55.5094 35.3473C54.2918 35.3473 53.1525 35.8254 52.3014 36.6937L46.5564 42.552H38.1206C38.7132 41.7638 39.02 40.8058 38.9926 39.8006C38.9277 37.4496 36.9275 35.537 34.534 35.537H24.7605C23.9169 35.537 23.0972 35.7116 22.3236 36.0563L15.1962 39.2355H11.9626V38.4573C11.9626 37.9718 11.5691 37.5784 11.0837 37.5784H7.43449C6.9491 37.5784 6.55559 37.9718 6.55559 38.4573C6.55559 38.9428 6.9491 39.3362 7.43449 39.3362H10.2048V58.2422H1.75793V39.3364H3.33293C3.81832 39.3364 4.21184 38.943 4.21184 38.4574C4.21184 37.9719 3.81832 37.5785 3.33293 37.5785H0.878906C0.393516 37.5785 0 37.9719 0 38.4574V59.1211C0 59.6066 0.393516 60 0.878906 60H11.0836C11.569 60 11.9625 59.6066 11.9625 59.1211V58.8516H21.3809C22.4845 58.8516 23.587 58.7172 24.6577 58.452L39.2205 54.8461C39.6918 54.7294 39.9791 54.2529 39.8625 53.7817C39.7459 53.3105 39.2693 53.0232 38.7981 53.1398L24.2352 56.7456C23.3026 56.9767 22.3423 57.0938 21.381 57.0938H11.9626V40.9934H15.3833C15.5067 40.9934 15.6287 40.9674 15.7413 40.9172L23.0393 37.662C23.586 37.4186 24.165 37.2951 24.7605 37.2951H34.534C35.9846 37.2951 37.1966 38.4409 37.2355 39.849C37.255 40.5665 36.9909 41.2439 36.4918 41.7567C35.9926 42.2697 34.6017 42.5526 34.5987 42.5526H27.9157C27.4303 42.5526 27.0368 42.946 27.0368 43.4315C27.0368 43.917 27.4303 44.3104 27.9157 44.3104L46.9253 44.3099C47.1614 44.3099 47.3875 44.2149 47.5528 44.0464L53.5563 37.9245C54.0743 37.3961 54.7678 37.1052 55.5093 37.1052C56.2043 37.1052 56.8669 37.3665 57.3746 37.8409C58.4753 38.8698 58.5346 40.6028 57.507 41.704L51.6641 47.964C50.0914 49.6548 48.0734 50.8424 45.8282 51.3986L42.7789 52.1533C42.3077 52.2699 42.0203 52.7465 42.1369 53.2176C42.236 53.6179 42.5947 53.8855 42.9893 53.8855C43.0593 53.8855 43.1303 53.8771 43.2012 53.8595L46.2505 53.1048C48.8282 52.4664 51.1452 51.1027 52.95 49.1623L58.7919 42.9033C60.4806 41.094 60.3832 38.247 58.575 36.5565Z" fill="#F53B49"/>
<path d="M35.9172 33.4828C45.1484 33.4828 52.6586 25.9726 52.6586 16.7415C52.6586 12.8783 51.306 9.10711 48.8501 6.12246C48.5418 5.74793 47.9879 5.69379 47.613 6.00234C47.2382 6.31078 47.1843 6.86461 47.4927 7.23949C49.6903 9.91031 50.9008 13.285 50.9008 16.7416C50.9008 25.0036 44.1791 31.7251 35.9172 31.7251C27.6552 31.7251 20.9336 25.0036 20.9336 16.7416C20.9337 8.47934 27.6552 1.75781 35.9172 1.75781C39.0829 1.75781 42.1114 2.7375 44.6753 4.59117C45.0687 4.87547 45.6181 4.78723 45.9025 4.39371C46.1869 4.00043 46.0986 3.45094 45.7052 3.16652C42.8397 1.095 39.4551 0 35.9172 0C26.686 0 19.1758 7.51019 19.1758 16.7414C19.1759 25.9726 26.686 33.4828 35.9172 33.4828Z" fill="#F53B49"/>
<path d="M42.6705 6.37879L39.7437 8.17997C39.5875 8.11 39.4297 8.0445 39.2708 7.98344L38.475 4.64102C38.3808 4.24516 38.027 3.96567 37.62 3.96567H34.2209C33.8139 3.96567 33.4601 4.24516 33.3659 4.64102L32.57 7.98344C32.4111 8.0445 32.2534 8.11 32.0972 8.17997L29.1703 6.37879C28.8238 6.16551 28.376 6.21813 28.0882 6.50582L25.6847 8.90946C25.3969 9.19727 25.3444 9.64493 25.5577 9.99157L27.3587 12.9183C27.2888 13.0745 27.2232 13.2323 27.1623 13.3913L23.8199 14.1871C23.424 14.2815 23.1445 14.6351 23.1445 15.0421V18.4413C23.1445 18.8482 23.4239 19.202 23.8199 19.2963L27.1623 20.0921C27.2232 20.2509 27.2889 20.4087 27.3587 20.5649L25.5577 23.4918C25.3444 23.8384 25.397 24.2861 25.6847 24.5739L28.0882 26.9774C28.376 27.2651 28.8238 27.3175 29.1703 27.1045L32.0971 25.3033C32.2532 25.3732 32.4109 25.4388 32.5699 25.4998L33.3657 28.8422C33.46 29.2381 33.8138 29.5176 34.2207 29.5176H37.6199C38.0269 29.5176 38.3807 29.2381 38.4749 28.8422L39.2707 25.4998C39.4297 25.4388 39.5876 25.3732 39.7436 25.3033L42.6703 27.1045C43.017 27.3179 43.4646 27.2651 43.7524 26.9774L46.1561 24.5739C46.4439 24.2861 46.4964 23.8384 46.2831 23.4918L44.4819 20.5649C44.5519 20.4087 44.6174 20.2509 44.6783 20.0921L48.0207 19.2963C48.4167 19.202 48.6961 18.8482 48.6961 18.4413V15.0421C48.6961 14.6351 48.4167 14.2815 48.0207 14.1871L44.6783 13.3913C44.6173 13.2323 44.5518 13.0745 44.4819 12.9183L46.283 9.99157C46.4963 9.64493 46.4438 9.19727 46.1559 8.90946L43.7523 6.50582C43.4648 6.21813 43.0171 6.16563 42.6705 6.37879ZM42.7006 13.2674C42.8895 13.6353 43.0484 14.0178 43.1729 14.4047C43.2672 14.6971 43.5072 14.9192 43.806 14.9903L46.9386 15.7362V17.7469L43.806 18.4927C43.507 18.5638 43.267 18.7859 43.1729 19.0784C43.0485 19.465 42.8896 19.8476 42.7006 20.2156C42.5602 20.489 42.5728 20.8159 42.7338 21.0776L44.4224 23.8216L43.0006 25.2433L40.2566 23.5547C39.9947 23.3936 39.6677 23.3811 39.3945 23.5216C39.0271 23.7102 38.6445 23.8693 38.2572 23.9939C37.9648 24.0882 37.7428 24.3282 37.6717 24.6269L36.9258 27.7594H34.915L34.1691 24.6269C34.0979 24.3281 33.876 24.0881 33.5836 23.9939C33.1963 23.8693 32.8137 23.7102 32.4463 23.5216C32.1727 23.3807 31.8457 23.3936 31.5841 23.5547L28.8402 25.2433L27.4185 23.8216L29.107 21.0776C29.2682 20.8158 29.2807 20.489 29.1403 20.2156C28.9513 19.8476 28.7924 19.465 28.6679 19.0784C28.5738 18.7859 28.3337 18.5638 28.0349 18.4927L24.9022 17.7469V15.7362L28.0349 14.9903C28.3337 14.9192 28.5737 14.6971 28.6679 14.4047C28.7925 14.0178 28.9514 13.6353 29.1403 13.2674C29.2807 12.994 29.268 12.6671 29.1069 12.4054L27.4187 9.66145L28.8404 8.23961L31.5844 9.92817C31.8462 10.0891 32.1729 10.102 32.4464 9.96145C32.8146 9.77254 33.1972 9.61352 33.5837 9.48907C33.8761 9.39497 34.0982 9.15485 34.1693 8.85614L34.9152 5.72348H36.926L37.6719 8.85614C37.743 9.15496 37.9651 9.39508 38.2575 9.48907C38.644 9.61352 39.0266 9.77254 39.3948 9.96145C39.6683 10.102 39.9952 10.0891 40.2568 9.92817L43.0008 8.23961L44.4226 9.66145L42.7341 12.4053C42.5728 12.6671 42.5602 12.994 42.7006 13.2674Z" fill="#F53B49"/>
<path d="M35.9187 12.4636C33.5598 12.4636 31.6406 14.3828 31.6406 16.7418C31.6406 19.1006 33.5597 21.0198 35.9187 21.0198C38.2777 21.0198 40.1967 19.1006 40.1967 16.7418C40.1968 14.3828 38.2777 12.4636 35.9187 12.4636ZM35.9187 19.262C34.5291 19.262 33.3984 18.1315 33.3984 16.7418C33.3984 15.352 34.5289 14.2214 35.9187 14.2214C37.3084 14.2214 38.4389 15.3519 38.4389 16.7418C38.439 18.1315 37.3084 19.262 35.9187 19.262Z" fill="#F53B49"/>
</svg>
